<svg width="307" height="46" viewBox="0 0 307 46" fill="none" xmlns="http://www.w3.org/2000/svg">
<g clip-path="url(#clip0_2492_14712)">
<path fill-rule="evenodd" clip-rule="evenodd" d="M79.7793 16.4671C80.2425 15.399 81.7572 15.399 82.2204 16.4671L83.6214 19.6981L87.1273 20.0322C88.2862 20.1426 88.7543 21.5832 87.8816 22.3537L85.2417 24.6847L86.0073 28.1221C86.2604 29.2585 85.035 30.1488 84.0325 29.5569L80.9998 27.7665L77.9672 29.5569C76.9647 30.1488 75.7393 29.2585 75.9924 28.1221L76.758 24.6847L74.1181 22.3537C73.2454 21.5832 73.7135 20.1426 74.8724 20.0322L78.3782 19.6981L79.7793 16.4671ZM82.4009 20.2274L80.9998 16.9964L79.5988 20.2274C79.406 20.6719 78.9868 20.9765 78.5044 21.0224L74.9986 21.3565L77.6385 23.6874C78.0017 24.0081 78.1619 24.5009 78.0565 24.9739L77.2909 28.4114L80.3235 26.621C80.7407 26.3746 81.2589 26.3746 81.6762 26.621L84.7088 28.4114L83.9432 24.9739C83.8378 24.5009 83.9979 24.0081 84.3612 23.6874L87.0011 21.3565L83.4952 21.0224C83.0129 20.9765 82.5937 20.6719 82.4009 20.2274Z" fill="#FF3F3A"/>
<path d="M105.753 17.432V19.144H100.625V22.352H104.665V24.008H100.625V27.28H105.753V29H98.4571V17.432H105.753ZM109.445 24.768L106.749 20.792H108.653C108.797 20.792 108.904 20.8133 108.973 20.856C109.043 20.8933 109.104 20.9573 109.157 21.048L110.877 23.792C110.904 23.7013 110.936 23.6107 110.973 23.52C111.016 23.4293 111.067 23.3387 111.125 23.248L112.509 21.088C112.573 20.9867 112.64 20.912 112.709 20.864C112.779 20.816 112.864 20.792 112.965 20.792H114.781L112.077 24.68L114.893 29H112.989C112.845 29 112.728 28.9627 112.637 28.888C112.552 28.8133 112.48 28.728 112.421 28.632L110.677 25.776C110.629 25.968 110.563 26.128 110.477 26.256L108.941 28.632C108.883 28.7227 108.811 28.808 108.725 28.888C108.64 28.9627 108.533 29 108.405 29H106.637L109.445 24.768ZM116.142 31.68V20.792H117.35C117.478 20.792 117.587 20.8213 117.678 20.88C117.769 20.9387 117.827 21.0293 117.854 21.152L118.014 21.912C118.345 21.5333 118.723 21.2267 119.15 20.992C119.582 20.7573 120.086 20.64 120.662 20.64C121.11 20.64 121.518 20.7333 121.886 20.92C122.259 21.1067 122.579 21.3787 122.846 21.736C123.118 22.088 123.326 22.5253 123.47 23.048C123.619 23.5653 123.694 24.16 123.694 24.832C123.694 25.4453 123.611 26.0133 123.446 26.536C123.281 27.0587 123.043 27.512 122.734 27.896C122.43 28.28 122.059 28.5813 121.622 28.8C121.19 29.0133 120.705 29.12 120.166 29.12C119.702 29.12 119.307 29.0507 118.982 28.912C118.662 28.768 118.374 28.5707 118.118 28.32V31.68H116.142ZM119.982 22.2C119.571 22.2 119.219 22.288 118.926 22.464C118.638 22.6347 118.369 22.8773 118.118 23.192V26.872C118.342 27.1493 118.585 27.344 118.846 27.456C119.113 27.5627 119.398 27.616 119.702 27.616C120.001 27.616 120.27 27.56 120.51 27.448C120.755 27.336 120.961 27.1653 121.126 26.936C121.297 26.7067 121.427 26.4187 121.518 26.072C121.609 25.72 121.654 25.3067 121.654 24.832C121.654 24.352 121.614 23.9467 121.534 23.616C121.459 23.28 121.35 23.008 121.206 22.8C121.062 22.592 120.886 22.44 120.678 22.344C120.475 22.248 120.243 22.2 119.982 22.2ZM128.581 20.664C129.098 20.664 129.573 20.7467 130.005 20.912C130.442 21.0773 130.818 21.32 131.133 21.64C131.447 21.9547 131.693 22.344 131.869 22.808C132.045 23.2667 132.133 23.792 132.133 24.384C132.133 24.5333 132.125 24.6587 132.109 24.76C132.098 24.856 132.074 24.9333 132.037 24.992C132.005 25.0453 131.959 25.0853 131.901 25.112C131.842 25.1333 131.767 25.144 131.677 25.144H126.605C126.663 25.9867 126.89 26.6053 127.285 27C127.679 27.3947 128.202 27.592 128.853 27.592C129.173 27.592 129.447 27.5547 129.677 27.48C129.911 27.4053 130.114 27.3227 130.285 27.232C130.461 27.1413 130.613 27.0587 130.741 26.984C130.874 26.9093 131.002 26.872 131.125 26.872C131.205 26.872 131.274 26.888 131.333 26.92C131.391 26.952 131.442 26.9973 131.485 27.056L132.061 27.776C131.842 28.032 131.597 28.248 131.325 28.424C131.053 28.5947 130.767 28.7333 130.469 28.84C130.175 28.9413 129.874 29.0133 129.565 29.056C129.261 29.0987 128.965 29.12 128.677 29.12C128.106 29.12 127.575 29.0267 127.085 28.84C126.594 28.648 126.167 28.368 125.805 28C125.442 27.6267 125.157 27.168 124.949 26.624C124.741 26.0747 124.637 25.44 124.637 24.72C124.637 24.16 124.727 23.6347 124.909 23.144C125.09 22.648 125.349 22.2187 125.685 21.856C126.026 21.488 126.439 21.1973 126.925 20.984C127.415 20.7707 127.967 20.664 128.581 20.664ZM128.621 22.08C128.045 22.08 127.594 22.2427 127.269 22.568C126.943 22.8933 126.735 23.3547 126.645 23.952H130.357C130.357 23.696 130.322 23.456 130.253 23.232C130.183 23.0027 130.077 22.8027 129.933 22.632C129.789 22.4613 129.607 22.328 129.389 22.232C129.17 22.1307 128.914 22.08 128.621 22.08ZM133.736 29V20.792H134.896C135.098 20.792 135.24 20.8293 135.32 20.904C135.4 20.9787 135.453 21.1067 135.48 21.288L135.6 22.28C135.893 21.7733 136.237 21.3733 136.632 21.08C137.026 20.7867 137.469 20.64 137.96 20.64C138.365 20.64 138.701 20.7333 138.968 20.92L138.712 22.4C138.696 22.496 138.661 22.5653 138.608 22.608C138.554 22.6453 138.482 22.664 138.392 22.664C138.312 22.664 138.202 22.6453 138.064 22.608C137.925 22.5707 137.741 22.552 137.512 22.552C137.101 22.552 136.749 22.6667 136.456 22.896C136.162 23.12 135.914 23.4507 135.712 23.888V29H133.736ZM142.371 20.792V29H140.395V20.792H142.371ZM142.667 18.4C142.667 18.5707 142.632 18.7307 142.563 18.88C142.494 19.0293 142.4 19.16 142.283 19.272C142.171 19.384 142.038 19.4747 141.883 19.544C141.728 19.608 141.563 19.64 141.387 19.64C141.216 19.64 141.054 19.608 140.899 19.544C140.75 19.4747 140.619 19.384 140.507 19.272C140.395 19.16 140.304 19.0293 140.235 18.88C140.171 18.7307 140.139 18.5707 140.139 18.4C140.139 18.224 140.171 18.0587 140.235 17.904C140.304 17.7493 140.395 17.616 140.507 17.504C140.619 17.392 140.75 17.304 140.899 17.24C141.054 17.1707 141.216 17.136 141.387 17.136C141.563 17.136 141.728 17.1707 141.883 17.24C142.038 17.304 142.171 17.392 142.283 17.504C142.4 17.616 142.494 17.7493 142.563 17.904C142.632 18.0587 142.667 18.224 142.667 18.4ZM148.003 20.664C148.52 20.664 148.995 20.7467 149.427 20.912C149.864 21.0773 150.24 21.32 150.555 21.64C150.869 21.9547 151.115 22.344 151.291 22.808C151.467 23.2667 151.555 23.792 151.555 24.384C151.555 24.5333 151.547 24.6587 151.531 24.76C151.52 24.856 151.496 24.9333 151.459 24.992C151.427 25.0453 151.381 25.0853 151.323 25.112C151.264 25.1333 151.189 25.144 151.099 25.144H146.027C146.085 25.9867 146.312 26.6053 146.707 27C147.101 27.3947 147.624 27.592 148.275 27.592C148.595 27.592 148.869 27.5547 149.099 27.48C149.333 27.4053 149.536 27.3227 149.707 27.232C149.883 27.1413 150.035 27.0587 150.163 26.984C150.296 26.9093 150.424 26.872 150.547 26.872C150.627 26.872 150.696 26.888 150.755 26.92C150.813 26.952 150.864 26.9973 150.907 27.056L151.483 27.776C151.264 28.032 151.019 28.248 150.747 28.424C150.475 28.5947 150.189 28.7333 149.891 28.84C149.597 28.9413 149.296 29.0133 148.987 29.056C148.683 29.0987 148.387 29.12 148.099 29.12C147.528 29.12 146.997 29.0267 146.507 28.84C146.016 28.648 145.589 28.368 145.227 28C144.864 27.6267 144.579 27.168 144.371 26.624C144.163 26.0747 144.059 25.44 144.059 24.72C144.059 24.16 144.149 23.6347 144.331 23.144C144.512 22.648 144.771 22.2187 145.107 21.856C145.448 21.488 145.861 21.1973 146.347 20.984C146.837 20.7707 147.389 20.664 148.003 20.664ZM148.043 22.08C147.467 22.08 147.016 22.2427 146.691 22.568C146.365 22.8933 146.157 23.3547 146.067 23.952H149.779C149.779 23.696 149.744 23.456 149.675 23.232C149.605 23.0027 149.499 22.8027 149.355 22.632C149.211 22.4613 149.029 22.328 148.811 22.232C148.592 22.1307 148.336 22.08 148.043 22.08ZM153.158 29V20.792H154.366C154.622 20.792 154.79 20.912 154.87 21.152L155.006 21.8C155.171 21.6293 155.344 21.4747 155.526 21.336C155.712 21.1973 155.907 21.0773 156.11 20.976C156.318 20.8747 156.539 20.7973 156.774 20.744C157.008 20.6907 157.264 20.664 157.542 20.664C157.99 20.664 158.387 20.7413 158.734 20.896C159.08 21.0453 159.368 21.2587 159.598 21.536C159.832 21.808 160.008 22.136 160.126 22.52C160.248 22.8987 160.31 23.3173 160.31 23.776V29H158.334V23.776C158.334 23.2747 158.216 22.888 157.982 22.616C157.752 22.3387 157.406 22.2 156.942 22.2C156.6 22.2 156.28 22.2773 155.982 22.432C155.683 22.5867 155.4 22.7973 155.134 23.064V29H153.158ZM168.019 22.528C167.961 22.6027 167.902 22.6613 167.843 22.704C167.79 22.7467 167.71 22.768 167.603 22.768C167.502 22.768 167.403 22.7387 167.307 22.68C167.211 22.616 167.097 22.5467 166.963 22.472C166.83 22.392 166.67 22.3227 166.483 22.264C166.302 22.2 166.075 22.168 165.803 22.168C165.457 22.168 165.153 22.232 164.891 22.36C164.63 22.4827 164.411 22.6613 164.235 22.896C164.065 23.1307 163.937 23.416 163.851 23.752C163.766 24.0827 163.723 24.4587 163.723 24.88C163.723 25.3173 163.769 25.7067 163.859 26.048C163.955 26.3893 164.091 26.6773 164.267 26.912C164.443 27.1413 164.657 27.3173 164.907 27.44C165.158 27.5573 165.441 27.616 165.755 27.616C166.07 27.616 166.323 27.5787 166.515 27.504C166.713 27.424 166.878 27.3387 167.011 27.248C167.145 27.152 167.259 27.0667 167.355 26.992C167.457 26.912 167.569 26.872 167.691 26.872C167.851 26.872 167.971 26.9333 168.051 27.056L168.619 27.776C168.401 28.032 168.163 28.248 167.907 28.424C167.651 28.5947 167.385 28.7333 167.107 28.84C166.835 28.9413 166.553 29.0133 166.259 29.056C165.966 29.0987 165.675 29.12 165.387 29.12C164.881 29.12 164.403 29.0267 163.955 28.84C163.507 28.648 163.115 28.3707 162.779 28.008C162.449 27.6453 162.185 27.2027 161.987 26.68C161.795 26.152 161.699 25.552 161.699 24.88C161.699 24.2773 161.785 23.72 161.955 23.208C162.131 22.6907 162.387 22.2453 162.723 21.872C163.059 21.4933 163.475 21.1973 163.971 20.984C164.467 20.7707 165.038 20.664 165.683 20.664C166.297 20.664 166.833 20.7627 167.291 20.96C167.755 21.1573 168.171 21.44 168.539 21.808L168.019 22.528ZM173.268 20.664C173.786 20.664 174.26 20.7467 174.692 20.912C175.13 21.0773 175.506 21.32 175.82 21.64C176.135 21.9547 176.38 22.344 176.556 22.808C176.732 23.2667 176.82 23.792 176.82 24.384C176.82 24.5333 176.812 24.6587 176.796 24.76C176.786 24.856 176.762 24.9333 176.724 24.992C176.692 25.0453 176.647 25.0853 176.588 25.112C176.53 25.1333 176.455 25.144 176.364 25.144H171.292C171.351 25.9867 171.578 26.6053 171.972 27C172.367 27.3947 172.89 27.592 173.54 27.592C173.86 27.592 174.135 27.5547 174.364 27.48C174.599 27.4053 174.802 27.3227 174.972 27.232C175.148 27.1413 175.3 27.0587 175.428 26.984C175.562 26.9093 175.69 26.872 175.812 26.872C175.892 26.872 175.962 26.888 176.02 26.92C176.079 26.952 176.13 26.9973 176.172 27.056L176.748 27.776C176.53 28.032 176.284 28.248 176.012 28.424C175.74 28.5947 175.455 28.7333 175.156 28.84C174.863 28.9413 174.562 29.0133 174.252 29.056C173.948 29.0987 173.652 29.12 173.364 29.12C172.794 29.12 172.263 29.0267 171.772 28.84C171.282 28.648 170.855 28.368 170.492 28C170.13 27.6267 169.844 27.168 169.636 26.624C169.428 26.0747 169.324 25.44 169.324 24.72C169.324 24.16 169.415 23.6347 169.596 23.144C169.778 22.648 170.036 22.2187 170.372 21.856C170.714 21.488 171.127 21.1973 171.612 20.984C172.103 20.7707 172.655 20.664 173.268 20.664ZM173.308 22.08C172.732 22.08 172.282 22.2427 171.956 22.568C171.631 22.8933 171.423 23.3547 171.332 23.952H175.044C175.044 23.696 175.01 23.456 174.94 23.232C174.871 23.0027 174.764 22.8027 174.62 22.632C174.476 22.4613 174.295 22.328 174.076 22.232C173.858 22.1307 173.602 22.08 173.308 22.08ZM184.199 29C183.943 29 183.775 28.88 183.695 28.64L183.535 27.848C183.365 28.04 183.186 28.2133 182.999 28.368C182.813 28.5227 182.61 28.656 182.391 28.768C182.178 28.88 181.946 28.9653 181.695 29.024C181.45 29.088 181.183 29.12 180.895 29.12C180.447 29.12 180.037 29.0267 179.663 28.84C179.29 28.6533 178.967 28.384 178.695 28.032C178.429 27.6747 178.221 27.2347 178.071 26.712C177.927 26.1893 177.855 25.592 177.855 24.92C177.855 24.312 177.938 23.7467 178.103 23.224C178.269 22.7013 178.506 22.248 178.815 21.864C179.125 21.48 179.495 21.1813 179.927 20.968C180.359 20.7493 180.845 20.64 181.383 20.64C181.842 20.64 182.234 20.7147 182.559 20.864C182.885 21.008 183.175 21.2027 183.431 21.448V17.112H185.407V29H184.199ZM181.567 27.552C181.978 27.552 182.327 27.4667 182.615 27.296C182.903 27.1253 183.175 26.8827 183.431 26.568V22.888C183.207 22.616 182.962 22.424 182.695 22.312C182.434 22.2 182.151 22.144 181.847 22.144C181.549 22.144 181.277 22.2 181.031 22.312C180.791 22.424 180.586 22.5947 180.415 22.824C180.25 23.048 180.122 23.336 180.031 23.688C179.941 24.0347 179.895 24.4453 179.895 24.92C179.895 25.4 179.933 25.808 180.007 26.144C180.087 26.4747 180.199 26.7467 180.343 26.96C180.487 27.168 180.663 27.32 180.871 27.416C181.079 27.5067 181.311 27.552 181.567 27.552ZM198.906 17.432V19.2H195.426V29H193.274V19.2H189.778V17.432H198.906ZM200.684 20.792V26.008C200.684 26.5093 200.799 26.8987 201.028 27.176C201.263 27.448 201.612 27.584 202.076 27.584C202.418 27.584 202.738 27.5093 203.036 27.36C203.335 27.2053 203.618 26.9947 203.884 26.728V20.792H205.86V29H204.652C204.396 29 204.228 28.88 204.148 28.64L204.012 27.984C203.842 28.1547 203.666 28.312 203.484 28.456C203.303 28.5947 203.108 28.7147 202.9 28.816C202.698 28.912 202.476 28.9867 202.236 29.04C202.002 29.0987 201.748 29.128 201.476 29.128C201.028 29.128 200.631 29.0533 200.284 28.904C199.943 28.7493 199.655 28.5333 199.42 28.256C199.186 27.9787 199.007 27.6507 198.884 27.272C198.767 26.888 198.708 26.4667 198.708 26.008V20.792H200.684ZM210.666 29.128C209.957 29.128 209.41 28.928 209.026 28.528C208.642 28.1227 208.45 27.5653 208.45 26.856V22.272H207.618C207.511 22.272 207.418 22.2373 207.338 22.168C207.263 22.0987 207.226 21.9947 207.226 21.856V21.072L208.546 20.856L208.962 18.616C208.983 18.5093 209.031 18.4267 209.106 18.368C209.186 18.3093 209.285 18.28 209.402 18.28H210.426V20.864H212.586V22.272H210.426V26.72C210.426 26.976 210.49 27.176 210.618 27.32C210.746 27.464 210.917 27.536 211.13 27.536C211.253 27.536 211.354 27.5227 211.434 27.496C211.519 27.464 211.591 27.432 211.65 27.4C211.714 27.368 211.77 27.3387 211.818 27.312C211.866 27.28 211.914 27.264 211.962 27.264C212.021 27.264 212.069 27.28 212.106 27.312C212.143 27.3387 212.183 27.3813 212.226 27.44L212.818 28.4C212.53 28.64 212.199 28.8213 211.826 28.944C211.453 29.0667 211.066 29.128 210.666 29.128ZM217.662 20.664C218.275 20.664 218.83 20.7627 219.326 20.96C219.827 21.1573 220.254 21.4373 220.606 21.8C220.958 22.1627 221.23 22.6053 221.422 23.128C221.614 23.6507 221.71 24.2347 221.71 24.88C221.71 25.5307 221.614 26.1173 221.422 26.64C221.23 27.1627 220.958 27.608 220.606 27.976C220.254 28.344 219.827 28.6267 219.326 28.824C218.83 29.0213 218.275 29.12 217.662 29.12C217.048 29.12 216.491 29.0213 215.99 28.824C215.488 28.6267 215.059 28.344 214.702 27.976C214.35 27.608 214.075 27.1627 213.878 26.64C213.686 26.1173 213.59 25.5307 213.59 24.88C213.59 24.2347 213.686 23.6507 213.878 23.128C214.075 22.6053 214.35 22.1627 214.702 21.8C215.059 21.4373 215.488 21.1573 215.99 20.96C216.491 20.7627 217.048 20.664 217.662 20.664ZM217.662 27.6C218.344 27.6 218.848 27.3707 219.174 26.912C219.504 26.4533 219.67 25.7813 219.67 24.896C219.67 24.0107 219.504 23.336 219.174 22.872C218.848 22.408 218.344 22.176 217.662 22.176C216.968 22.176 216.456 22.4107 216.126 22.88C215.795 23.344 215.63 24.016 215.63 24.896C215.63 25.776 215.795 26.448 216.126 26.912C216.456 27.3707 216.968 27.6 217.662 27.6ZM223.251 29V20.792H224.411C224.614 20.792 224.755 20.8293 224.835 20.904C224.915 20.9787 224.969 21.1067 224.995 21.288L225.115 22.28C225.409 21.7733 225.753 21.3733 226.147 21.08C226.542 20.7867 226.985 20.64 227.475 20.64C227.881 20.64 228.217 20.7333 228.483 20.92L228.227 22.4C228.211 22.496 228.177 22.5653 228.123 22.608C228.07 22.6453 227.998 22.664 227.907 22.664C227.827 22.664 227.718 22.6453 227.579 22.608C227.441 22.5707 227.257 22.552 227.027 22.552C226.617 22.552 226.265 22.6667 225.971 22.896C225.678 23.12 225.43 23.4507 225.227 23.888V29H223.251ZM234.655 22.392C234.601 22.4773 234.545 22.5387 234.487 22.576C234.428 22.608 234.353 22.624 234.263 22.624C234.167 22.624 234.063 22.5973 233.951 22.544C233.844 22.4907 233.719 22.432 233.575 22.368C233.431 22.2987 233.265 22.2373 233.079 22.184C232.897 22.1307 232.681 22.104 232.431 22.104C232.041 22.104 231.735 22.1867 231.511 22.352C231.287 22.5173 231.175 22.7333 231.175 23C231.175 23.176 231.231 23.3253 231.343 23.448C231.46 23.5653 231.612 23.6693 231.799 23.76C231.991 23.8507 232.207 23.9333 232.447 24.008C232.687 24.0773 232.932 24.1547 233.183 24.24C233.433 24.3253 233.679 24.424 233.919 24.536C234.159 24.6427 234.372 24.7813 234.559 24.952C234.751 25.1173 234.903 25.3173 235.015 25.552C235.132 25.7867 235.191 26.0693 235.191 26.4C235.191 26.7947 235.119 27.16 234.975 27.496C234.831 27.8267 234.62 28.1147 234.343 28.36C234.065 28.6 233.721 28.7893 233.311 28.928C232.905 29.0613 232.439 29.128 231.911 29.128C231.628 29.128 231.351 29.1013 231.079 29.048C230.812 29 230.553 28.9307 230.303 28.84C230.057 28.7493 229.828 28.6427 229.615 28.52C229.407 28.3973 229.223 28.264 229.063 28.12L229.519 27.368C229.577 27.2773 229.647 27.208 229.727 27.16C229.807 27.112 229.908 27.088 230.031 27.088C230.153 27.088 230.268 27.1227 230.375 27.192C230.487 27.2613 230.615 27.336 230.759 27.416C230.903 27.496 231.071 27.5707 231.263 27.64C231.46 27.7093 231.708 27.744 232.007 27.744C232.241 27.744 232.441 27.7173 232.607 27.664C232.777 27.6053 232.916 27.5307 233.023 27.44C233.135 27.3493 233.215 27.2453 233.263 27.128C233.316 27.0053 233.343 26.88 233.343 26.752C233.343 26.56 233.284 26.4027 233.167 26.28C233.055 26.1573 232.903 26.0507 232.711 25.96C232.524 25.8693 232.308 25.7893 232.063 25.72C231.823 25.6453 231.575 25.5653 231.319 25.48C231.068 25.3947 230.82 25.296 230.575 25.184C230.335 25.0667 230.119 24.92 229.927 24.744C229.74 24.568 229.588 24.352 229.471 24.096C229.359 23.84 229.303 23.5307 229.303 23.168C229.303 22.832 229.369 22.512 229.503 22.208C229.636 21.904 229.831 21.64 230.087 21.416C230.348 21.1867 230.671 21.0053 231.055 20.872C231.444 20.7333 231.892 20.664 232.399 20.664C232.964 20.664 233.479 20.7573 233.943 20.944C234.407 21.1307 234.793 21.376 235.103 21.68L234.655 22.392Z" fill="#FF3F3A"/>
</g>
<rect x="0.5" y="0.5" width="306" height="45" rx="3.5" stroke="#FF3F3A"/>
<defs>
<clipPath id="clip0_2492_14712">
<rect width="163" height="26" fill="white" transform="translate(73 10)"/>
</clipPath>
</defs>
</svg>
